<svg xmlns="http://www.w3.org/2000/svg" width="19" height="18" fill="none"><path stroke="#fff" stroke-linecap="round" stroke-linejoin="round" stroke-width="1.3" d="m2.375 16.125 4.162-1.6c.266-.103.4-.154.524-.221.11-.06.216-.128.315-.205.112-.087.213-.188.414-.39l8.46-8.459a2.121 2.121 0 0 0-3-3l-8.46 8.46c-.201.201-.302.302-.389.414-.077.1-.145.205-.205.315-.067.125-.118.258-.22.524l-1.601 4.162Zm0 0 1.544-4.013c.11-.287.165-.431.26-.497a.375.375 0 0 1 .284-.06c.114.021.222.13.44.348l1.694 1.694c.218.218.327.327.348.44a.375.375 0 0 1-.06.284c-.066.095-.21.15-.497.26l-4.013 1.544Z"/></svg>