<svg aria-hidden="true" style="position:absolute;width:0;height:0;overflow:hidden" xmlns="http://www.w3.org/2000/svg">
  <defs>
    <svg aria-hidden="true" style="position:absolute;width:0;height:0;overflow:hidden" xmlns="http://www.w3.org/2000/svg"><defs><symbol id="icon-feedback-delete" viewBox="0 0 32 32"><path stroke-linejoin="round" stroke-linecap="round" stroke-width="3" d="M4 8h24M25.333 8v18.667a2.67 2.67 0 0 1-2.667 2.667H9.333a2.668 2.668 0 0 1-2.667-2.667V8m4.001 0V5.333a2.668 2.668 0 0 1 2.667-2.667h5.333a2.67 2.67 0 0 1 2.667 2.667V8M13.333 14.667v8M18.667 14.667v8"/></symbol>
    <symbol id="icon-logout" width="20" height="20" viewBox="0 0 20 20" fill="none"><path d="M13.3333 14.1667L17.5 10M17.5 10L13.3333 5.83333M17.5 10H7.5M7.5 2.5H6.5C5.09987 2.5 4.3998 2.5 3.86502 2.77248C3.39462 3.01217 3.01217 3.39462 2.77248 3.86502C2.5 4.3998 2.5 5.09987 2.5 6.5V13.5C2.5 14.9001 2.5 15.6002 2.77248 16.135C3.01217 16.6054 3.39462 16.9878 3.86502 17.2275C4.3998 17.5 5.09987 17.5 6.5 17.5H7.5" stroke="white" stroke-width="2" stroke-linecap="round" stroke-linejoin="round"/></symbol>
    <symbol id="icon-close" viewBox="0 0 32 32"><path stroke-linejoin="round" stroke-linecap="round" stroke-width="2.667" d="M24 8 8 24M8 8l16 16"/></symbol><symbol id="icon-calendar-arrow-left" viewBox="0 0 32 32"><path stroke-linejoin="round" stroke-linecap="round" stroke-width="2.667" d="m20 24-8-8 8-8"/></symbol><symbol id="icon-calendar-arrow-right" viewBox="0 0 32 32"><path stroke-linejoin="round" stroke-linecap="round" stroke-width="2.667" d="m12 24 8-8-8-8"/></symbol><symbol id="icon-statistics" fill="none" viewBox="0 0 32 32"><path d="M23.8 9.037c0-.759.001-1.305.038-1.732.037-.436.103-.596.134-.648a.058.058 0 0 1 .015-.019h.001c.009-.006.045-.031.138-.06.208-.064.569-.112 1.207-.112s1 .048 1.207.112a.467.467 0 0 1 .138.06h.001c.004.003.007.005.015.019.031.052.097.212.134.648.037.427.037.973.037 1.732v13.926c0 .896-.051 1.503-.135 1.915-.084.414-.182.531-.199.548a.09.09 0 0 1-.029.02.68.68 0 0 1-.169.046c-.221.038-.511.041-1.002.041-.499 0-.793-.003-1.015-.042a.719.719 0 0 1-.168-.045c-.016-.008-.02-.012-.025-.017-.015-.016-.112-.131-.195-.547-.082-.413-.132-1.022-.132-1.92V9.036zM25.333 4.2c-1.288 0-2.612.136-3.305 1.291-.302.504-.403 1.084-.449 1.621-.046.535-.046 1.177-.046 1.884v13.968c0 .954.05 1.734.175 2.363.125.625.343 1.205.761 1.652.439.47.975.664 1.466.748.435.075.92.074 1.344.074h.107c.418 0 .9 0 1.333-.074.489-.084 1.023-.278 1.463-.745.42-.445.643-1.023.77-1.651.128-.63.18-1.412.18-2.367V8.996c0-.706 0-1.349-.046-1.884-.046-.536-.147-1.117-.449-1.621C27.944 4.336 26.62 4.2 25.332 4.2zm-10.828 8.467c-.033.301-.035.651-.035 1.111v9.811c-.033 1.146.175 1.533.299 1.666.107.115.376.279 1.23.279.834 0 1.112-.162 1.226-.283.127-.134.34-.522.303-1.658l-.001-.036v-9.778c0-.461-.001-.811-.035-1.111-.033-.296-.089-.448-.137-.529l-.002-.003c-.031-.053-.198-.335-1.356-.335s-1.324.282-1.356.335l-.002.003c-.049.081-.104.232-.137.529zm-1.807-1.694c.639-1.066 1.819-1.44 3.302-1.44s2.663.374 3.302 1.44c.284.475.395.99.445 1.444.049.438.049.908.049 1.328v9.793c.039 1.301-.16 2.461-.921 3.268-.777.823-1.869.995-2.875.995-1.015 0-2.112-.169-2.887-.999-.754-.808-.944-1.97-.909-3.261v-9.795c0-.42 0-.89.049-1.328.05-.454.161-.969.445-1.444zm-7.529 8.386c-.035.352-.036.776-.036 1.344v3.689c0 .641.155.816.23.88.122.103.453.261 1.303.261.832 0 1.167-.156 1.296-.264.081-.068.237-.247.237-.877v-3.669l-.009-.27c-.015-.439-.026-.782-.059-1.085-.039-.363-.099-.533-.146-.616l-.001-.002c-.012-.027-.127-.285-1.319-.285-1.196 0-1.336.261-1.355.297l-.001.003c-.046.078-.106.242-.141.593zm-1.813-1.741c.654-1.112 1.877-1.418 3.31-1.418 1.436 0 2.648.308 3.288 1.431.276.485.379 1.02.43 1.495.043.395.057.841.072 1.281l.009.257v3.729c0 .991-.256 1.949-1.047 2.613-.744.624-1.741.795-2.753.795-1.021 0-2.024-.169-2.767-.798-.79-.669-1.033-1.63-1.033-2.61v-3.725c0-.522 0-1.056.047-1.532.048-.487.155-1.029.442-1.517z"/></symbol><symbol id="icon-user" viewBox="0 0 32 32"><path stroke-linejoin="round" stroke-linecap="round" stroke-width="2.667" d="M21.333 24 24 26.667l5.333-5.333M16 20.667h-6c-1.861 0-2.791 0-3.548.23a5.331 5.331 0 0 0-3.555 3.556c-.23.757-.23 1.687-.23 3.548M13.333 16a6 6 0 1 0 0-12 6 6 0 0 0 0 12z"/></symbol><symbol id="icon-calendar" viewBox="0 0 32 32"><path stroke-linejoin="round" stroke-linecap="round" stroke-width="2.667" d="M28 13.333H4m24 3.334v-4.933c0-2.24 0-3.36-.436-4.216a3.991 3.991 0 0 0-1.748-1.748c-.856-.436-1.976-.436-4.216-.436H10.4c-2.24 0-3.36 0-4.216.436a3.991 3.991 0 0 0-1.748 1.748C4 8.374 4 9.494 4 11.734v11.2c0 2.24 0 3.36.436 4.216a3.991 3.991 0 0 0 1.748 1.748c.856.436 1.976.436 4.216.436H16m5.333-26.667V8M10.667 2.667V8m8.666 17.333L22 28l6-6"/></symbol><symbol id="icon-theme-toggler-dark" viewBox="0 0 32 32"><path d="M27.656 17.393c-.904.24-1.834.361-2.769.361-2.847 0-5.52-1.107-7.528-3.115a10.702 10.702 0 0 1-2.751-10.298 1.33 1.33 0 0 0-.943-1.63 1.345 1.345 0 0 0-.69 0A13.346 13.346 0 0 0 6.99 6.154c-5.197 5.197-5.197 13.657 0 18.857a13.26 13.26 0 0 0 9.429 3.907 13.245 13.245 0 0 0 9.427-3.905 13.343 13.343 0 0 0 3.444-5.988 1.33 1.33 0 0 0-.347-1.285 1.34 1.34 0 0 0-1.285-.346zm-3.696 5.735a10.594 10.594 0 0 1-7.542 3.124 10.585 10.585 0 0 1-7.544-3.125c-4.157-4.159-4.157-10.927 0-15.085a10.562 10.562 0 0 1 2.747-1.977 13.365 13.365 0 0 0 3.854 10.464 13.29 13.29 0 0 0 10.464 3.854 10.704 10.704 0 0 1-1.979 2.745z"/></symbol><symbol id="icon-theme-toggler-light" viewBox="0 0 32 32"><path d="M9.324 16c0 3.681 2.995 6.676 6.676 6.676s6.676-2.995 6.676-6.676S19.681 9.324 16 9.324 9.324 12.319 9.324 16zM16 11.991c2.211 0 4.009 1.799 4.009 4.009S18.21 20.009 16 20.009c-2.211 0-4.009-1.799-4.009-4.009S13.79 11.991 16 11.991zm-1.336 13.342h2.667v4h-2.667v-4zm0-22.666h2.667v4h-2.667v-4zm-12 12h4v2.667h-4v-2.667zm22.667 0h4v2.667h-4v-2.667zM5.625 24.484l2.827-2.829 1.887 1.885-2.827 2.829-1.887-1.885zM21.653 8.459l2.829-2.829 1.885 1.885-2.829 2.829-1.885-1.885zM8.456 10.345 5.627 7.516l1.887-1.885 2.827 2.829-1.884 1.885zm17.912 14.14-1.885 1.885-2.829-2.829 1.885-1.885 2.829 2.829z"/></symbol><symbol id="icon-delete" viewBox="0 0 32 32"><path stroke-linejoin="round" stroke-linecap="round" stroke-width="2.6" d="M12 4h8M4 8h24M6.667 8l.801 12.018c.149 2.231.223 3.347.588 4.243a6 6 0 0 0 3.672 3.435c.919.304 2.037.304 4.273.304 2.236 0 3.354 0 4.273-.304a5.999 5.999 0 0 0 3.671-3.435c.365-.896.439-2.012.588-4.243L25.334 8"/></symbol><symbol id="icon-edit" viewBox="0 0 32 32"><path stroke-linejoin="round" stroke-linecap="round" stroke-width="2.6" d="m3.333 28.667 7.399-2.846c.473-.182.71-.273.931-.392.197-.106.384-.227.56-.364.198-.154.378-.333.736-.692l15.04-15.04A3.77 3.77 0 1 0 22.666 4L7.626 19.04c-.359.359-.538.538-.692.736a3.902 3.902 0 0 0-.364.561c-.119.221-.21.458-.392.931l-2.846 7.399zm0 0 2.744-7.135c.196-.511.295-.766.463-.883a.665.665 0 0 1 .505-.107c.201.038.395.232.782.619l3.012 3.012c.387.387.58.58.619.782a.665.665 0 0 1-.107.505c-.117.168-.372.267-.883.463l-7.135 2.744z"/></symbol><symbol id="icon-task-arrow" viewBox="0 0 32 32"><path stroke-linejoin="round" stroke-linecap="round" stroke-width="2.6" d="M4.451 9.333a13.328 13.328 0 0 1 11.55-6.667c7.364 0 13.333 5.97 13.333 13.333s-5.97 13.333-13.333 13.333a13.329 13.329 0 0 1-11.55-6.667"/><path stroke-linejoin="round" stroke-linecap="round" stroke-width="2.6" d="M16 21.333 21.333 16 16 10.667M2.667 16h18.667"/></symbol><symbol id="icon-plus-circle" viewBox="0 0 32 32"><path stroke-linejoin="round" stroke-linecap="round" stroke-width="2.667" d="M16 10.667v10.667M10.667 16h10.667m7.999 0c0 7.364-5.97 13.333-13.333 13.333S2.667 23.363 2.667 16C2.667 8.636 8.637 2.667 16 2.667S29.333 8.637 29.333 16z"/></symbol><symbol id="icon-plus" viewBox="0 0 32 32"><path stroke-linejoin="round" stroke-linecap="round" stroke-width="3.556" d="M16 6.667v18.667M6.667 16h18.667"/></symbol><symbol id="icon-success" viewBox="0 0 32 32"><path d="m14.133 18.4-2.9-2.9c-.244-.244-.55-.361-.916-.349s-.673.138-.917.383-.367.556-.367.933c0 .378.122.689.367.933l3.8 3.8c.244.244.556.367.933.367s.689-.122.933-.367l7.567-7.567c.244-.244.361-.55.351-.917s-.14-.672-.384-.916-.556-.367-.933-.367c-.378 0-.689.122-.933.367l-6.6 6.6zM16 29.333c-1.844 0-3.578-.35-5.2-1.051s-3.033-1.649-4.233-2.849-2.15-2.611-2.849-4.233c-.7-1.622-1.051-3.356-1.051-5.2s.35-3.578 1.051-5.2c.7-1.622 1.649-3.033 2.849-4.233s2.611-2.15 4.233-2.851c1.622-.7 3.356-1.049 5.2-1.049s3.578.35 5.2 1.049c1.622.7 3.033 1.651 4.233 2.851s2.15 2.611 2.849 4.233c.7 1.622 1.051 3.356 1.051 5.2s-.35 3.578-1.051 5.2c-.7 1.622-1.649 3.033-2.849 4.233s-2.611 2.15-4.233 2.849c-1.622.7-3.356 1.051-5.2 1.051zm0-2.666c2.956 0 5.472-1.039 7.551-3.116s3.116-4.595 3.116-7.551c0-2.956-1.039-5.472-3.116-7.551S18.956 5.333 16 5.333c-2.956 0-5.472 1.039-7.549 3.116S5.334 13.044 5.334 16c0 2.956 1.039 5.472 3.117 7.551s4.594 3.116 7.549 3.116z"/></symbol><symbol id="icon-error" viewBox="0 0 32 32"><path d="M14.667 20h2.667v2.667h-2.667V20zm0-10.667h2.667v8h-2.667v-8zm1.32-6.666C8.627 2.667 2.667 8.64 2.667 16s5.96 13.333 13.32 13.333c7.373 0 13.347-5.973 13.347-13.333S23.361 2.667 15.987 2.667zm.013 24c-5.893 0-10.667-4.773-10.667-10.667S10.106 5.333 16 5.333c5.893 0 10.667 4.773 10.667 10.667S21.894 26.667 16 26.667z"/></symbol><symbol id="icon-slider-arrow-left" viewBox="0 0 33 32"><path d="m7.966 17.067-1.203-.818 22.877-.001v-.64l-22.733.001 1.133-.651-.319-.555-2.608 1.498 2.493 1.695.36-.529z"/></symbol><symbol id="icon-slider-arrow-right" viewBox="0 0 33 32"><path d="m21.936 14.79 1.203.818-22.877.001v.64l22.733-.001-1.133.651.319.555 2.608-1.498-2.493-1.695-.36.529z"/></symbol><symbol id="icon-login" viewBox="0 0 32 32"><path stroke-linejoin="round" stroke-linecap="round" stroke-width="2.526" d="M19.789 4.632h1.516c2.122 0 3.183 0 3.994.413a3.786 3.786 0 0 1 1.656 1.656c.413.811.413 1.872.413 3.994v10.611c0 2.122 0 3.183-.413 3.994a3.786 3.786 0 0 1-1.656 1.656c-.811.413-1.872.413-3.994.413h-1.516M13.474 9.684 19.79 16m-.001 0-6.316 6.316M19.789 16H4.631"/></symbol></defs></svg>

    <svg aria-hidden="true" style="position:absolute;width:0;height:0;overflow:hidden" xmlns="http://www.w3.org/2000/svg"><defs><symbol id="icon-feedback-delete" viewBox="0 0 32 32"><path stroke-linejoin="round" stroke-linecap="round" stroke-width="3" d="M4 8h24M25.333 8v18.667a2.67 2.67 0 0 1-2.667 2.667H9.333a2.668 2.668 0 0 1-2.667-2.667V8m4.001 0V5.333a2.668 2.668 0 0 1 2.667-2.667h5.333a2.67 2.67 0 0 1 2.667 2.667V8M13.333 14.667v8M18.667 14.667v8"/></symbol><symbol id="icon-logout" viewBox="0 0 32 32"><path stroke-linejoin="round" stroke-linecap="round" stroke-width="3.2" d="M21.333 22.667 28 16m0 0-6.667-6.667M28 16H12m0-12h-1.6c-2.24 0-3.36 0-4.216.436a3.991 3.991 0 0 0-1.748 1.748C4 7.04 4 8.16 4 10.4v11.2c0 2.24 0 3.36.436 4.216a3.996 3.996 0 0 0 1.748 1.748C7.04 28 8.16 28 10.4 28H12"/></symbol><symbol id="icon-close" viewBox="0 0 32 32"><path stroke-linejoin="round" stroke-linecap="round" stroke-width="2.667" d="M24 8 8 24M8 8l16 16"/></symbol><symbol id="icon-calendar-arrow-left" viewBox="0 0 32 32"><path stroke-linejoin="round" stroke-linecap="round" stroke-width="2.667" d="m20 24-8-8 8-8"/></symbol><symbol id="icon-calendar-arrow-right" viewBox="0 0 32 32"><path stroke-linejoin="round" stroke-linecap="round" stroke-width="2.667" d="m12 24 8-8-8-8"/></symbol><symbol id="icon-statistics" viewBox="0 0 32 32"><path d="M23.8 9.037c0-.759.001-1.305.038-1.732.037-.436.103-.596.134-.648a.058.058 0 0 1 .015-.019h.001c.009-.006.045-.031.138-.06.208-.064.569-.112 1.207-.112s1 .048 1.207.112a.467.467 0 0 1 .138.06h.001c.004.003.007.005.015.019.031.052.097.212.134.648.037.427.037.973.037 1.732v13.926c0 .896-.051 1.503-.135 1.915-.084.414-.182.531-.199.548a.09.09 0 0 1-.029.02.68.68 0 0 1-.169.046c-.221.038-.511.041-1.002.041-.499 0-.793-.003-1.015-.042a.719.719 0 0 1-.168-.045c-.016-.008-.02-.012-.025-.017-.015-.016-.112-.131-.195-.547-.082-.413-.132-1.022-.132-1.92V9.036zM25.333 4.2c-1.288 0-2.612.136-3.305 1.291-.302.504-.403 1.084-.449 1.621-.046.535-.046 1.177-.046 1.884v13.968c0 .954.05 1.734.175 2.363.125.625.343 1.205.761 1.652.439.47.975.664 1.466.748.435.075.92.074 1.344.074h.107c.418 0 .9 0 1.333-.074.489-.084 1.023-.278 1.463-.745.42-.445.643-1.023.77-1.651.128-.63.18-1.412.18-2.367V8.996c0-.706 0-1.349-.046-1.884-.046-.536-.147-1.117-.449-1.621C27.944 4.336 26.62 4.2 25.332 4.2zm-10.828 8.467c-.033.301-.035.651-.035 1.111v9.811c-.033 1.146.175 1.533.299 1.666.107.115.376.279 1.23.279.834 0 1.112-.162 1.226-.283.127-.134.34-.522.303-1.658l-.001-.036v-9.778c0-.461-.001-.811-.035-1.111-.033-.296-.089-.448-.137-.529l-.002-.003c-.031-.053-.198-.335-1.356-.335s-1.324.282-1.356.335l-.002.003c-.049.081-.104.232-.137.529zm-1.807-1.694c.639-1.066 1.819-1.44 3.302-1.44s2.663.374 3.302 1.44c.284.475.395.99.445 1.444.049.438.049.908.049 1.328v9.793c.039 1.301-.16 2.461-.921 3.268-.777.823-1.869.995-2.875.995-1.015 0-2.112-.169-2.887-.999-.754-.808-.944-1.97-.909-3.261v-9.795c0-.42 0-.89.049-1.328.05-.454.161-.969.445-1.444zm-7.529 8.386c-.035.352-.036.776-.036 1.344v3.689c0 .641.155.816.23.88.122.103.453.261 1.303.261.832 0 1.167-.156 1.296-.264.081-.068.237-.247.237-.877v-3.669l-.009-.27c-.015-.439-.026-.782-.059-1.085-.039-.363-.099-.533-.146-.616l-.001-.002c-.012-.027-.127-.285-1.319-.285-1.196 0-1.336.261-1.355.297l-.001.003c-.046.078-.106.242-.141.593zm-1.813-1.741c.654-1.112 1.877-1.418 3.31-1.418 1.436 0 2.648.308 3.288 1.431.276.485.379 1.02.43 1.495.043.395.057.841.072 1.281l.009.257v3.729c0 .991-.256 1.949-1.047 2.613-.744.624-1.741.795-2.753.795-1.021 0-2.024-.169-2.767-.798-.79-.669-1.033-1.63-1.033-2.61v-3.725c0-.522 0-1.056.047-1.532.048-.487.155-1.029.442-1.517z"/></symbol><symbol id="icon-user" viewBox="0 0 32 32"><path stroke-linejoin="round" stroke-linecap="round" stroke-width="2.667" d="M21.333 24 24 26.667l5.333-5.333M16 20.667h-6c-1.861 0-2.791 0-3.548.23a5.331 5.331 0 0 0-3.555 3.556c-.23.757-.23 1.687-.23 3.548M13.333 16a6 6 0 1 0 0-12 6 6 0 0 0 0 12z"/></symbol><symbol id="icon-calendar" viewBox="0 0 32 32"><path stroke-linejoin="round" stroke-linecap="round" stroke-width="2.667" d="M28 13.333H4m24 3.334v-4.933c0-2.24 0-3.36-.436-4.216a3.991 3.991 0 0 0-1.748-1.748c-.856-.436-1.976-.436-4.216-.436H10.4c-2.24 0-3.36 0-4.216.436a3.991 3.991 0 0 0-1.748 1.748C4 8.374 4 9.494 4 11.734v11.2c0 2.24 0 3.36.436 4.216a3.991 3.991 0 0 0 1.748 1.748c.856.436 1.976.436 4.216.436H16m5.333-26.667V8M10.667 2.667V8m8.666 17.333L22 28l6-6"/></symbol><symbol id="icon-theme-toggler-dark" viewBox="0 0 32 32"><path d="M27.656 17.393c-.904.24-1.834.361-2.769.361-2.847 0-5.52-1.107-7.528-3.115a10.702 10.702 0 0 1-2.751-10.298 1.33 1.33 0 0 0-.943-1.63 1.345 1.345 0 0 0-.69 0A13.346 13.346 0 0 0 6.99 6.154c-5.197 5.197-5.197 13.657 0 18.857a13.26 13.26 0 0 0 9.429 3.907 13.245 13.245 0 0 0 9.427-3.905 13.343 13.343 0 0 0 3.444-5.988 1.33 1.33 0 0 0-.347-1.285 1.34 1.34 0 0 0-1.285-.346zm-3.696 5.735a10.594 10.594 0 0 1-7.542 3.124 10.585 10.585 0 0 1-7.544-3.125c-4.157-4.159-4.157-10.927 0-15.085a10.562 10.562 0 0 1 2.747-1.977 13.365 13.365 0 0 0 3.854 10.464 13.29 13.29 0 0 0 10.464 3.854 10.704 10.704 0 0 1-1.979 2.745z"/></symbol><symbol id="icon-theme-toggler-light" viewBox="0 0 32 32"><path d="M9.324 16c0 3.681 2.995 6.676 6.676 6.676s6.676-2.995 6.676-6.676S19.681 9.324 16 9.324 9.324 12.319 9.324 16zM16 11.991c2.211 0 4.009 1.799 4.009 4.009S18.21 20.009 16 20.009c-2.211 0-4.009-1.799-4.009-4.009S13.79 11.991 16 11.991zm-1.336 13.342h2.667v4h-2.667v-4zm0-22.666h2.667v4h-2.667v-4zm-12 12h4v2.667h-4v-2.667zm22.667 0h4v2.667h-4v-2.667zM5.625 24.484l2.827-2.829 1.887 1.885-2.827 2.829-1.887-1.885zM21.653 8.459l2.829-2.829 1.885 1.885-2.829 2.829-1.885-1.885zM8.456 10.345 5.627 7.516l1.887-1.885 2.827 2.829-1.884 1.885zm17.912 14.14-1.885 1.885-2.829-2.829 1.885-1.885 2.829 2.829z"/></symbol><symbol id="icon-delete" viewBox="0 0 32 32"><path stroke-linejoin="round" stroke-linecap="round" stroke-width="2.6" d="M12 4h8M4 8h24M6.667 8l.801 12.018c.149 2.231.223 3.347.588 4.243a6 6 0 0 0 3.672 3.435c.919.304 2.037.304 4.273.304 2.236 0 3.354 0 4.273-.304a5.999 5.999 0 0 0 3.671-3.435c.365-.896.439-2.012.588-4.243L25.334 8"/></symbol><symbol id="icon-edit" viewBox="0 0 32 32"><path stroke-linejoin="round" stroke-linecap="round" stroke-width="2.6" d="m3.333 28.667 7.399-2.846c.473-.182.71-.273.931-.392.197-.106.384-.227.56-.364.198-.154.378-.333.736-.692l15.04-15.04A3.77 3.77 0 1 0 22.666 4L7.626 19.04c-.359.359-.538.538-.692.736a3.902 3.902 0 0 0-.364.561c-.119.221-.21.458-.392.931l-2.846 7.399zm0 0 2.744-7.135c.196-.511.295-.766.463-.883a.665.665 0 0 1 .505-.107c.201.038.395.232.782.619l3.012 3.012c.387.387.58.58.619.782a.665.665 0 0 1-.107.505c-.117.168-.372.267-.883.463l-7.135 2.744z"/></symbol><symbol id="icon-task-arrow" viewBox="0 0 32 32"><path stroke-linejoin="round" stroke-linecap="round" stroke-width="2.6" d="M4.451 9.333a13.328 13.328 0 0 1 11.55-6.667c7.364 0 13.333 5.97 13.333 13.333s-5.97 13.333-13.333 13.333a13.329 13.329 0 0 1-11.55-6.667"/><path stroke-linejoin="round" stroke-linecap="round" stroke-width="2.6" d="M16 21.333 21.333 16 16 10.667M2.667 16h18.667"/></symbol><symbol id="icon-plus-circle" viewBox="0 0 32 32"><path stroke-linejoin="round" stroke-linecap="round" stroke-width="2.667" d="M16 10.667v10.667M10.667 16h10.667m7.999 0c0 7.364-5.97 13.333-13.333 13.333S2.667 23.363 2.667 16C2.667 8.636 8.637 2.667 16 2.667S29.333 8.637 29.333 16z"/></symbol><symbol id="icon-plus" viewBox="0 0 32 32"><path stroke-linejoin="round" stroke-linecap="round" stroke-width="3.556" d="M16 6.667v18.667M6.667 16h18.667"/></symbol><symbol id="icon-success" viewBox="0 0 32 32"><path d="m14.133 18.4-2.9-2.9c-.244-.244-.55-.361-.916-.349s-.673.138-.917.383-.367.556-.367.933c0 .378.122.689.367.933l3.8 3.8c.244.244.556.367.933.367s.689-.122.933-.367l7.567-7.567c.244-.244.361-.55.351-.917s-.14-.672-.384-.916-.556-.367-.933-.367c-.378 0-.689.122-.933.367l-6.6 6.6zM16 29.333c-1.844 0-3.578-.35-5.2-1.051s-3.033-1.649-4.233-2.849-2.15-2.611-2.849-4.233c-.7-1.622-1.051-3.356-1.051-5.2s.35-3.578 1.051-5.2c.7-1.622 1.649-3.033 2.849-4.233s2.611-2.15 4.233-2.851c1.622-.7 3.356-1.049 5.2-1.049s3.578.35 5.2 1.049c1.622.7 3.033 1.651 4.233 2.851s2.15 2.611 2.849 4.233c.7 1.622 1.051 3.356 1.051 5.2s-.35 3.578-1.051 5.2c-.7 1.622-1.649 3.033-2.849 4.233s-2.611 2.15-4.233 2.849c-1.622.7-3.356 1.051-5.2 1.051zm0-2.666c2.956 0 5.472-1.039 7.551-3.116s3.116-4.595 3.116-7.551c0-2.956-1.039-5.472-3.116-7.551S18.956 5.333 16 5.333c-2.956 0-5.472 1.039-7.549 3.116S5.334 13.044 5.334 16c0 2.956 1.039 5.472 3.117 7.551s4.594 3.116 7.549 3.116z"/></symbol><symbol id="icon-error" viewBox="0 0 32 32"><path d="M14.667 20h2.667v2.667h-2.667V20zm0-10.667h2.667v8h-2.667v-8zm1.32-6.666C8.627 2.667 2.667 8.64 2.667 16s5.96 13.333 13.32 13.333c7.373 0 13.347-5.973 13.347-13.333S23.361 2.667 15.987 2.667zm.013 24c-5.893 0-10.667-4.773-10.667-10.667S10.106 5.333 16 5.333c5.893 0 10.667 4.773 10.667 10.667S21.894 26.667 16 26.667z"/></symbol><symbol id="icon-slider-arrow-left" viewBox="0 0 33 32"><path d="m7.966 17.067-1.203-.818 22.877-.001v-.64l-22.733.001 1.133-.651-.319-.555-2.608 1.498 2.493 1.695.36-.529z"/></symbol><symbol id="icon-slider-arrow-right" viewBox="0 0 33 32"><path d="m21.936 14.79 1.203.818-22.877.001v.64l22.733-.001-1.133.651.319.555 2.608-1.498-2.493-1.695-.36.529z"/></symbol><symbol id="icon-login" viewBox="0 0 32 32"><path stroke-linejoin="round" stroke-linecap="round" stroke-width="2.526" d="M19.789 4.632h1.516c2.122 0 3.183 0 3.994.413a3.786 3.786 0 0 1 1.656 1.656c.413.811.413 1.872.413 3.994v10.611c0 2.122 0 3.183-.413 3.994a3.786 3.786 0 0 1-1.656 1.656c-.811.413-1.872.413-3.994.413h-1.516M13.474 9.684 19.79 16m-.001 0-6.316 6.316M19.789 16H4.631"/></symbol>


    <!-- <symbol id="close-btn" width="24" height="24" viewBox="0 0 24 24" fill="none">
      <path d="M18 6L6 18" stroke="#111111" stroke-width="2" stroke-linecap="round" stroke-linejoin="round"/>
      <path d="M6 6L18 18" stroke="#111111" stroke-width="2" stroke-linecap="round" stroke-linejoin="round"/></symbol> <symbol id="edit-btn" width="16" height="16" viewBox="0 0 19 18" fill="none">
      <g>
      <path id="Icon" d="M2.375 16.125L6.53695 14.5242C6.80316 14.4218 6.93626 14.3707 7.06079 14.3038C7.1714 14.2444 7.27685 14.1759 7.37603 14.0989C7.48769 14.0123 7.58853 13.9115 7.79021 13.7098L16.25 5.24998C17.0784 4.42156 17.0784 3.07841 16.25 2.24998C15.4216 1.42156 14.0784 1.42156 13.25 2.24998L4.79021 10.7098C4.58853 10.9115 4.48769 11.0123 4.40104 11.124C4.32408 11.2231 4.25555 11.3286 4.19618 11.4392C4.12933 11.5637 4.07814 11.6968 3.97575 11.963L2.375 16.125ZM2.375 16.125L3.91859 12.1117C4.02905 11.8245 4.08428 11.6809 4.17901 11.6151C4.26179 11.5577 4.36423 11.5359 4.46322 11.5548C4.5765 11.5765 4.68529 11.6853 4.90286 11.9028L6.59718 13.5971C6.81475 13.8147 6.92354 13.9235 6.94517 14.0368C6.96408 14.1358 6.94234 14.2382 6.88486 14.321C6.81909 14.4157 6.67549 14.471 6.3883 14.5814L2.375 16.125Z" stroke="white" stroke-width="1.3" stroke-linecap="round" stroke-linejoin="round"/>
      </g>
    </symbol> -->

    <symbol id="close-btn" viewBox="0 0 32 32">
<path stroke-linejoin="round" stroke-linecap="round" stroke-miterlimit="4" stroke-width="2.6667" d="M24 8l-16 16"></path>
<path stroke-linejoin="round" stroke-linecap="round" stroke-miterlimit="4" stroke-width="2.6667" d="M8 8l16 16"></path>
</symbol>

    <symbol id="trashbin" width="16" height="16" viewBox="0 0 16 16" fill="none">
      <path d="M6 2H10" stroke="white" stroke-width="1.3" stroke-linecap="round" stroke-linejoin="round"/>
      <path d="M2 4H14" stroke="white" stroke-width="1.3" stroke-linecap="round" stroke-linejoin="round"/>
      <path d="M3.33334 4L3.73393 10.0089C3.80831 11.1245 3.8455 11.6823 4.0278 12.1304C4.35879 12.9441 5.02973 13.5718 5.86358 13.8479C6.32286 14 6.88191 14 8.00001 14V14C9.11811 14 9.67716 14 10.1364 13.8479C10.9703 13.5718 11.6412 12.9441 11.9722 12.1304C12.1545 11.6823 12.1917 11.1245 12.2661 10.0089L12.6667 4" stroke="white" stroke-width="1.3" stroke-linecap="round" stroke-linejoin="round"/>
    </symbol>


    <symbol id="icon-feedback-delete" viewBox="0 0 32 32">
      <path stroke-linejoin="round" stroke-linecap="round" stroke-width="3" d="M4 8h24M25.333 8v18.667a2.67 2.67 0 0 1-2.667 2.667H9.333a2.668 2.668 0 0 1-2.667-2.667V8m4.001 0V5.333a2.668 2.668 0 0 1 2.667-2.667h5.333a2.67 2.67 0 0 1 2.667 2.667V8M13.333 14.667v8M18.667 14.667v8"/>
    </symbol>

    <symbol id="icon-close" viewBox="0 0 32 32">
      <path stroke-linejoin="round" stroke-linecap="round" stroke-width="2.667" d="M24 8 8 24M8 8l16 16"/>
    </symbol>

    <symbol id="icon-calendar-arrow-left" viewBox="0 0 32 32">
      <path stroke-linejoin="round" stroke-linecap="round" stroke-width="2.667" d="m20 24-8-8 8-8"/>
    </symbol>

    <symbol id="icon-calendar-arrow-right" viewBox="0 0 32 32">
      <path stroke-linejoin="round" stroke-linecap="round" stroke-width="2.667" d="m12 24 8-8-8-8"/>
    </symbol>

    <symbol id="icon-theme-toggler-dark" viewBox="0 0 32 32">
      <path d="M27.656 17.393c-.904.24-1.834.361-2.769.361-2.847 0-5.52-1.107-7.528-3.115a10.702 10.702 0 0 1-2.751-10.298 1.33 1.33 0 0 0-.943-1.63 1.345 1.345 0 0 0-.69 0A13.346 13.346 0 0 0 6.99 6.154c-5.197 5.197-5.197 13.657 0 18.857a13.26 13.26 0 0 0 9.429 3.907 13.245 13.245 0 0 0 9.427-3.905 13.343 13.343 0 0 0 3.444-5.988 1.33 1.33 0 0 0-.347-1.285 1.34 1.34 0 0 0-1.285-.346zm-3.696 5.735a10.594 10.594 0 0 1-7.542 3.124 10.585 10.585 0 0 1-7.544-3.125c-4.157-4.159-4.157-10.927 0-15.085a10.562 10.562 0 0 1 2.747-1.977 13.365 13.365 0 0 0 3.854 10.464 13.29 13.29 0 0 0 10.464 3.854 10.704 10.704 0 0 1-1.979 2.745z"/>
    </symbol>

    <symbol id="icon-theme-toggler-light" viewBox="0 0 32 32">
      <path d="M9.324 16c0 3.681 2.995 6.676 6.676 6.676s6.676-2.995 6.676-6.676S19.681 9.324 16 9.324 9.324 12.319 9.324 16zM16 11.991c2.211 0 4.009 1.799 4.009 4.009S18.21 20.009 16 20.009c-2.211 0-4.009-1.799-4.009-4.009S13.79 11.991 16 11.991zm-1.336 13.342h2.667v4h-2.667v-4zm0-22.666h2.667v4h-2.667v-4zm-12 12h4v2.667h-4v-2.667zm22.667 0h4v2.667h-4v-2.667zM5.625 24.484l2.827-2.829 1.887 1.885-2.827 2.829-1.887-1.885zM21.653 8.459l2.829-2.829 1.885 1.885-2.829 2.829-1.885-1.885zM8.456 10.345 5.627 7.516l1.887-1.885 2.827 2.829-1.884 1.885zm17.912 14.14-1.885 1.885-2.829-2.829 1.885-1.885 2.829 2.829z"/>
    </symbol>

    <symbol id="icon-delete" viewBox="0 0 22 22">
      <path stroke-linejoin="round" stroke-linecap="round" stroke-width="2.6" d="M12 4h8M4 8h24M6.667 8l.801 12.018c.149 2.231.223 3.347.588 4.243a6 6 0 0 0 3.672 3.435c.919.304 2.037.304 4.273.304 2.236 0 3.354 0 4.273-.304a5.999 5.999 0 0 0 3.671-3.435c.365-.896.439-2.012.588-4.243L25.334 8"/>
    </symbol>

    <symbol id="icon-edit" viewBox="0 0 32 32">
      <path stroke-linejoin="round" stroke-linecap="round" stroke-width="2.6" d="m3.333 28.667 7.399-2.846c.473-.182.71-.273.931-.392.197-.106.384-.227.56-.364.198-.154.378-.333.736-.692l15.04-15.04A3.77 3.77 0 1 0 22.666 4L7.626 19.04c-.359.359-.538.538-.692.736a3.902 3.902 0 0 0-.364.561c-.119.221-.21.458-.392.931l-2.846 7.399zm0 0 2.744-7.135c.196-.511.295-.766.463-.883a.665.665 0 0 1 .505-.107c.201.038.395.232.782.619l3.012 3.012c.387.387.58.58.619.782a.665.665 0 0 1-.107.505c-.117.168-.372.267-.883.463l-7.135 2.744z"/>
    </symbol>

    <symbol id="icon-task-arrow" viewBox="0 0 32 32">
      <path stroke-linejoin="round" stroke-linecap="round" stroke-width="2.6" d="M4.451 9.333a13.328 13.328 0 0 1 11.55-6.667c7.364 0 13.333 5.97 13.333 13.333s-5.97 13.333-13.333 13.333a13.329 13.329 0 0 1-11.55-6.667"/>
      <path stroke-linejoin="round" stroke-linecap="round" stroke-width="2.6" d="M16 21.333 21.333 16 16 10.667M2.667 16h18.667"/>
    </symbol>

    <!-- vlad's -->
    <symbol id="icon-plus-circle" viewBox="0 0 24 24">
      <path stroke-width="2" stroke-linecap="round" stroke-linejoin="round" d="M12 8V16M8 12H16M22 12C22 17.5228 17.5228 22 12 22C6.47715 22 2 17.5228 2 12C2 6.47715 6.47715 2 12 2C17.5228 2 22 6.47715 22 12Z"/>
    </symbol>

    <symbol id="icon-plus" viewBox="0 0 24 24">
      <path d="M12 5V19M5 12H19" stroke-width="2" stroke-linecap="round" stroke-linejoin="round"/>
    </symbol>

    <symbol id="arrow-circle-broken-right" viewBox="0 0 16 16">
      <path d="M2.22534 4.66665C3.37804 2.67398 5.53252 1.33331 8.00013 1.33331C11.682 1.33331 14.6668 4.31808 14.6668 7.99998C14.6668 11.6819 11.682 14.6666 8.00013 14.6666C5.53252 14.6666 3.37804 13.326 2.22534 11.3333"  stroke-width="1.3" stroke-linecap="round" stroke-linejoin="round"/>
      <path d="M8 10.6666L10.6667 7.99998L8 5.33331"  stroke-width="1.3" stroke-linecap="round" stroke-linejoin="round"/>
      <path d="M1.33325 8L10.6666 8"  stroke-width="1.3" stroke-linecap="round" stroke-linejoin="round"/>
    </symbol>

    <symbol id="icon-pencil" viewBox="0 0 16 16">
      <path d="M1.66675 14.3333L5.36626 12.9104C5.60289 12.8194 5.7212 12.7739 5.83189 12.7145C5.93022 12.6617 6.02395 12.6008 6.11211 12.5324C6.21136 12.4554 6.301 12.3657 6.48027 12.1865L14.0001 4.66665C14.7365 3.93027 14.7365 2.73636 14.0001 1.99998C13.2637 1.2636 12.0698 1.2636 11.3334 1.99998L3.8136 9.51979C3.63433 9.69906 3.5447 9.7887 3.46768 9.88795C3.39926 9.97611 3.33835 10.0698 3.28557 10.1682C3.22615 10.2789 3.18065 10.3972 3.08964 10.6338L1.66675 14.3333ZM1.66675 14.3333L3.03883 10.766C3.13701 10.5107 3.1861 10.383 3.27031 10.3246C3.34389 10.2735 3.43495 10.2542 3.52295 10.271C3.62364 10.2902 3.72034 10.3869 3.91374 10.5803L5.4198 12.0863C5.6132 12.2797 5.7099 12.3764 5.72913 12.4771C5.74593 12.5651 5.72661 12.6562 5.67551 12.7298C5.61705 12.814 5.48941 12.8631 5.23413 12.9613L1.66675 14.3333Z" stroke-width="1.3" stroke-linecap="round" stroke-linejoin="round"/>
    </symbol>

    <symbol id="icon-trash" viewBox="0 0 16 16">
      <path d="M6 2H10" stroke-width="1.3" stroke-linecap="round" stroke-linejoin="round"/>
      <path d="M2 4H14" stroke-width="1.3" stroke-linecap="round" stroke-linejoin="round"/>
      <path d="M3.33325 4L3.73384 10.0089C3.80822 11.1245 3.84541 11.6823 4.02771 12.1304C4.3587 12.9441 5.02964 13.5718 5.86349 13.8479C6.32277 14 6.88182 14 7.99992 14V14C9.11802 14 9.67707 14 10.1364 13.8479C10.9702 13.5718 11.6411 12.9441 11.9721 12.1304C12.1544 11.6823 12.1916 11.1245 12.266 10.0089L12.6666 4" stroke-width="1.3" stroke-linecap="round" stroke-linejoin="round"/>
    </symbol>
    <!-- vlad's end -->


    <symbol id="icon-success" viewBox="0 0 32 32">
      <path d="m14.133 18.4-2.9-2.9c-.244-.244-.55-.361-.916-.349s-.673.138-.917.383-.367.556-.367.933c0 .378.122.689.367.933l3.8 3.8c.244.244.556.367.933.367s.689-.122.933-.367l7.567-7.567c.244-.244.361-.55.351-.917s-.14-.672-.384-.916-.556-.367-.933-.367c-.378 0-.689.122-.933.367l-6.6 6.6zM16 29.333c-1.844 0-3.578-.35-5.2-1.051s-3.033-1.649-4.233-2.849-2.15-2.611-2.849-4.233c-.7-1.622-1.051-3.356-1.051-5.2s.35-3.578 1.051-5.2c.7-1.622 1.649-3.033 2.849-4.233s2.611-2.15 4.233-2.851c1.622-.7 3.356-1.049 5.2-1.049s3.578.35 5.2 1.049c1.622.7 3.033 1.651 4.233 2.851s2.15 2.611 2.849 4.233c.7 1.622 1.051 3.356 1.051 5.2s-.35 3.578-1.051 5.2c-.7 1.622-1.649 3.033-2.849 4.233s-2.611 2.15-4.233 2.849c-1.622.7-3.356 1.051-5.2 1.051zm0-2.666c2.956 0 5.472-1.039 7.551-3.116s3.116-4.595 3.116-7.551c0-2.956-1.039-5.472-3.116-7.551S18.956 5.333 16 5.333c-2.956 0-5.472 1.039-7.549 3.116S5.334 13.044 5.334 16c0 2.956 1.039 5.472 3.117 7.551s4.594 3.116 7.549 3.116z"/>
    </symbol>

    <symbol id="icon-error" viewBox="0 0 32 32">
      <path d="M14.667 20h2.667v2.667h-2.667V20zm0-10.667h2.667v8h-2.667v-8zm1.32-6.666C8.627 2.667 2.667 8.64 2.667 16s5.96 13.333 13.32 13.333c7.373 0 13.347-5.973 13.347-13.333S23.361 2.667 15.987 2.667zm.013 24c-5.893 0-10.667-4.773-10.667-10.667S10.106 5.333 16 5.333c5.893 0 10.667 4.773 10.667 10.667S21.894 26.667 16 26.667z"/>
    </symbol>

    <symbol id="icon-slider-arrow-left" viewBox="0 0 33 32">
      <path d="m7.966 17.067-1.203-.818 22.877-.001v-.64l-22.733.001 1.133-.651-.319-.555-2.608 1.498 2.493 1.695.36-.529z"/>
    </symbol>

    <symbol id="icon-slider-arrow-right" viewBox="0 0 33 32">
      <path d="m21.936 14.79 1.203.818-22.877.001v.64l22.733-.001-1.133.651.319.555 2.608-1.498-2.493-1.695-.36.529z"/>
    </symbol>

    <symbol id="icon-login" viewBox="0 0 32 32">
      <path stroke-linejoin="round" stroke-linecap="round" stroke-width="2.526" d="M19.789 4.632h1.516c2.122 0 3.183 0 3.994.413a3.786 3.786 0 0 1 1.656 1.656c.413.811.413 1.872.413 3.994v10.611c0 2.122 0 3.183-.413 3.994a3.786 3.786 0 0 1-1.656 1.656c-.811.413-1.872.413-3.994.413h-1.516M13.474 9.684 19.79 16m-.001 0-6.316 6.316M19.789 16H4.631"/>
    </symbol>

    <symbol id="icon-trash-review" viewBox="0 0 32 32">
<path fill="none" stroke-linejoin="round" stroke-linecap="round" stroke-miterlimit="4" stroke-width="3" d="M4 8h24"></path>
<path fill="none" stroke-linejoin="round" stroke-linecap="round" stroke-miterlimit="4" stroke-width="3" d="M25.333 8v18.667c0 0.707-0.281 1.385-0.781 1.886s-1.178 0.781-1.886 0.781h-13.333c-0.707 0-1.386-0.281-1.886-0.781s-0.781-1.178-0.781-1.886v-18.667M10.666 8v-2.667c0-0.707 0.281-1.386 0.781-1.886s1.178-0.781 1.886-0.781h5.333c0.707 0 1.386 0.281 1.886 0.781s0.781 1.178 0.781 1.886v2.667"></path>
<path fill="none" stroke-linejoin="round" stroke-linecap="round" stroke-miterlimit="4" stroke-width="3" d="M13.334 14.667v8"></path>
<path fill="none" stroke-linejoin="round" stroke-linecap="round" stroke-miterlimit="4" stroke-width="3" d="M18.666 14.667v8"></path>
</symbol>
  </defs>
</svg>

<symbol id="trashbin" width="16" height="16" viewBox="0 0 16 16" fill="none">
<path d="M6 2H10" stroke="white" stroke-width="1.3" stroke-linecap="round" stroke-linejoin="round"/>
<path d="M2 4H14" stroke="white" stroke-width="1.3" stroke-linecap="round" stroke-linejoin="round"/>
<path d="M3.33334 4L3.73393 10.0089C3.80831 11.1245 3.8455 11.6823 4.0278 12.1304C4.35879 12.9441 5.02973 13.5718 5.86358 13.8479C6.32286 14 6.88191 14 8.00001 14V14C9.11811 14 9.67716 14 10.1364 13.8479C10.9703 13.5718 11.6412 12.9441 11.9722 12.1304C12.1545 11.6823 12.1917 11.1245 12.2661 10.0089L12.6667 4" stroke="white" stroke-width="1.3" stroke-linecap="round" stroke-linejoin="round"/>
</symbol>

<symbol id="plus-btn"  fill="none" viewBox="0 0 19 19"><path stroke="#fff" stroke-linecap="round" stroke-linejoin="round" stroke-width="2" d="M10 4.167v11.666M4.167 10h11.666"/></symbol>

<symbol id="icon-burger-menu-button" viewBox="0 0 32 32">
<path stroke-linejoin="round" stroke-linecap="round" stroke-miterlimit="4" stroke-width="2.3529" d="M4 16h24"></path>
<path stroke-linejoin="round" stroke-linecap="round" stroke-miterlimit="4" stroke-width="2.3529" d="M4 8h24"></path>
<path stroke-linejoin="round" stroke-linecap="round" stroke-miterlimit="4" stroke-width="2.3529" d="M4 24h24"></path>
</symbol>
<symbol id="icon-chevron-down" viewBox="0 0 32 32">
<path stroke-linejoin="round" stroke-linecap="round" stroke-miterlimit="4" stroke-width="3.5556" d="M8 12l8 8 8-8"></path>
</symbol>
</defs></svg>



